<?xml version="1.0" encoding="utf-8"?>
<svg viewBox="217.387 80.902 240.825 262.041" xmlns="http://www.w3.org/2000/svg">
  <g id="#fdfefeff" transform="matrix(0.9999999999999999, 0, 0, 0.9999999999999999, 194.4884033203124, 66.59453582763672)">
    <path opacity="1.00" d="M 76.25 72.474 C 86.49 50.69 108.795 35.902 132.421 32.791 C 147.067 31.346 162.216 32.844 175.726 39.004 C 190.557 45.622 203.987 57.008 210.341 72.236 C 200.994 71.566 193.016 71.24 184.344 71.188 C 182.326 71.452 188.195 80.63 186.882 79.335 C 177.435 69.033 158.86 97.48 144.962 97.595 C 133.762 98.071 120.635 76.864 112.017 84.169 C 109.161 86.417 105.763 69.584 102.397 71.117 C 98.325 71.681 80.885 72.254 76.25 72.474 Z" style="fill: rgb(68, 161, 161);"/>
    <path opacity="1.00" d=" M 172.15 71.33 C 178.91 67.94 186.49 66.47 193.95 65.64 C 206.52 65.59 219.67 68.27 229.81 76.12 C 242.23 85.56 250.10 100.57 251.48 116.04 C 251.85 124.42 252.16 132.99 249.79 141.13 C 247.08 151.74 241.69 161.45 235.17 170.17 C 227.71 180.03 220.02 189.84 210.63 197.95 C 208.60 196.49 206.73 194.80 205.12 192.86 C 201.36 188.28 196.96 184.19 193.88 179.06 C 198.30 173.14 203.93 168.27 208.47 162.45 C 215.70 153.39 223.07 143.56 224.84 131.79 C 226.60 122.26 224.61 111.97 218.94 104.06 C 214.54 98.29 208.13 93.81 200.91 92.55 C 194.02 91.84 186.72 92.04 180.48 95.41 C 164.99 102.88 156.83 119.15 143.05 128.84 C 131.49 118.82 123.18 105.19 109.94 97.13 C 102.70 92.56 93.82 91.38 85.48 92.78 C 77.42 94.71 70.59 100.61 67.00 108.01 C 60.52 120.50 61.52 136.28 68.80 148.21 C 75.71 159.82 85.58 169.19 94.72 179.00 C 90.20 185.29 84.62 190.75 78.95 195.99 C 77.48 197.60 75.22 196.41 73.99 195.13 C 67.91 189.47 62.64 183.02 57.46 176.54 C 52.21 169.98 47.11 163.19 43.55 155.54 C 35.31 138.11 34.33 117.37 41.24 99.34 C 46.14 86.12 56.48 74.97 69.45 69.39 C 74.76 67.58 80.35 66.42 85.97 66.40 C 92.69 66.37 99.56 65.81 106.06 67.89 C 121.58 71.77 134.05 82.77 143.96 94.86 C 152.69 86.29 160.94 76.76 172.15 71.33 Z" style="fill: rgb(67, 246, 246);"/>
    <path opacity="1.00" d=" M 149.04 177.77 C 152.86 171.23 158.47 165.96 164.15 161.05 C 170.79 165.92 176.05 172.35 181.88 178.11 C 188.66 185.68 196.05 192.68 202.76 200.32 C 209.57 207.82 217.25 214.62 222.97 223.04 C 224.67 225.19 222.79 227.70 221.60 229.58 C 218.20 234.32 213.60 238.54 207.97 240.36 C 205.96 239.84 204.36 238.45 202.87 237.08 C 195.70 230.25 189.45 222.54 182.62 215.38 C 172.02 202.32 159.59 190.87 149.04 177.77 Z" style="fill: rgb(79, 255, 172);"/>
    <path opacity="1.00" d=" M 120.11 163.16 C 121.67 161.70 124.08 162.02 125.50 163.49 C 130.11 167.55 134.25 172.14 137.92 177.06 C 134.65 182.84 130.27 187.88 125.41 192.37 C 116.93 200.28 110.21 209.83 102.02 218.02 C 95.13 224.80 89.57 233.01 81.61 238.66 C 79.55 240.28 76.55 240.11 74.56 238.46 C 70.50 235.37 66.81 231.50 64.55 226.89 C 63.56 222.99 66.79 219.77 68.93 216.90 C 74.03 210.72 79.73 205.07 85.34 199.37 C 92.46 192.12 98.66 184.03 106.04 177.04 C 110.82 172.50 114.97 167.30 120.11 163.16 Z" style="fill: rgb(80, 255, 172);"/>
    <path opacity="1.00" d=" M 108.44 220.50 C 114.06 214.70 119.22 208.46 125.12 202.92 C 131.65 207.27 135.39 214.61 141.77 219.12 C 142.73 219.87 144.05 219.67 144.96 218.94 C 150.86 214.98 155.06 209.02 160.71 204.76 C 162.80 203.16 164.58 205.72 166.05 206.95 C 170.23 211.39 174.99 215.42 178.12 220.73 C 171.80 230.04 163.44 237.62 155.60 245.60 C 151.42 249.65 147.53 254.18 142.31 256.96 C 139.66 254.52 137.14 251.95 134.69 249.30 C 125.80 239.83 116.40 230.79 108.44 220.50 Z" style="fill: rgb(66, 246, 246);"/>
  </g>
</svg>